<svg fill="#000000" xmlns="http://www.w3.org/2000/svg" xmlns:xlink="http://www.w3.org/1999/xlink" version="1.1" x="0px" y="0px" viewBox="0 0 100 100" enable-background="new 0 0 100 100" xml:space="preserve"><g display="none"><ellipse display="inline" fill="#000000" stroke="#000000" stroke-miterlimit="10" cx="-510.692" cy="391.473" rx="887.752" ry="795.256"/></g><g><path d="M66.327,30.829c-5.179-4.637-12.145-6.854-19.11-6.084C35.658,26.024,26.568,35.38,25.604,46.991   c-0.704,8.47,2.936,16.567,9.732,21.658c0.44,0.33,0.505,0.852,0.504,1.167v9.522c0,3.688,2.132,6.88,5.224,8.43v2.046   c0,3.131,2.547,5.678,5.678,5.678h6.516c3.131,0,5.678-2.547,5.678-5.678v-2.046c3.092-1.55,5.224-4.742,5.224-8.43v-9.551   c0-0.284,0.065-0.81,0.517-1.148c6.232-4.675,9.807-11.807,9.807-19.567C74.482,42.12,71.51,35.47,66.327,30.829z M53.68,89.815   c0,0.225-0.197,0.421-0.422,0.421h-6.516c-0.225,0-0.422-0.197-0.422-0.421v-1.042h7.359V89.815z M61.521,64.435   c-1.67,1.253-2.624,3.21-2.617,5.382v9.522c0,2.303-1.874,4.177-4.177,4.177h-9.453c-2.303,0-4.177-1.874-4.177-4.177v-9.536   c0.009-2.158-0.941-4.112-2.607-5.36c-5.341-4-8.199-10.362-7.646-17.016c0.745-8.965,8.033-16.47,16.952-17.458   c0.748-0.083,1.491-0.124,2.228-0.124c4.747,0,9.226,1.701,12.798,4.899c4.071,3.646,6.406,8.868,6.406,14.328   C69.227,55.163,66.418,60.762,61.521,64.435z"/><path d="M43.727,33.789c-5.83,1.81-10.145,7.554-10.258,13.656c-0.025,1.34,1.041,2.448,2.382,2.473c0.015,0,0.03,0,0.046,0   c1.319,0,2.401-1.057,2.426-2.382c0.075-4.005,3.018-7.922,6.844-9.11c1.28-0.397,1.996-1.758,1.599-3.038   C46.367,34.107,45.006,33.389,43.727,33.789z"/><rect x="48.18" y="7.135" width="3.641" height="13.317"/><rect x="29.836" y="14.66" transform="matrix(-0.3827 -0.9239 0.9239 -0.3827 35.2354 56.5039)" width="13.318" height="3.641"/><polygon points="29.754,28.839 31.041,27.551 21.625,18.134 20.338,19.422 19.051,20.709 28.467,30.126  "/><polygon points="70.246,69.331 68.959,70.618 78.376,80.035 80.95,77.459 71.533,68.043  "/><polygon points="11.244,33.031 10.548,34.713 22.852,39.81 24.244,36.445 11.94,31.349  "/><polygon points="75.755,61.724 88.059,66.82 88.756,65.138 89.453,63.456 77.149,58.359  "/><rect x="8.051" y="47.264" width="13.317" height="3.642"/><polygon points="78.632,50.905 91.949,50.905 91.949,49.085 91.949,47.264 78.632,47.264  "/><polygon points="22.851,58.359 10.547,63.456 11.244,65.138 11.941,66.82 24.245,61.724  "/><polygon points="89.452,34.713 88.756,33.031 88.06,31.349 75.756,36.445 77.148,39.81  "/><polygon points="28.467,68.043 19.051,77.459 20.338,78.747 21.625,80.035 31.041,70.618 29.754,69.331  "/><polygon points="68.959,27.551 70.246,28.839 71.533,30.126 80.95,20.709 78.376,18.134  "/><rect x="56.847" y="14.66" transform="matrix(-0.3827 0.9239 -0.9239 -0.3827 103.0349 -35.8832)" width="13.318" height="3.641"/></g></svg>