<?xml version="1.0" ?><svg viewBox="0 0 100 100" xmlns="http://www.w3.org/2000/svg"><title/><g data-name="Layer 2" id="baf93412-2ace-48ce-8efd-bb3d7534c8c6"><circle cx="50" cy="50" fill="#e6e6e6" r="49.5"/></g><g data-name="Layer 1" id="19e57839-b478-4345-b003-8215a79f8ed6"><path d="M74.32237,80.819H25.67386a4.66106,4.66106,0,0,1-4.336-6.37968c1.64326-4.07362,5.275-6.97345,9.611-9.07242a32.02071,32.02071,0,0,0,6.36586-3.85264,2.06391,2.06391,0,0,0,.17952-.15188A14.23911,14.23911,0,0,0,40.256,58.3521a15.501,15.501,0,0,0,6.46253,3.92166,7.76918,7.76918,0,0,0,1.46373.34522,9.061,9.061,0,0,0,1.73993.15188,10.82366,10.82366,0,0,0,1.8918-.1657,9.58926,9.58926,0,0,0,1.5052-.37278,15.91686,15.91686,0,0,0,6.36586-3.977,13.875,13.875,0,0,0,2.73412,3.03788c.08285.06911.17952.152.27619.221a31.914,31.914,0,0,0,6.352,3.85264c4.34982,2.099,7.96773,4.99879,9.611,9.07242A4.65558,4.65558,0,0,1,74.32237,80.819Z" fill="#fff"/><path d="M66.501,35.74847c0,9.15113-7.41891,24.26644-16.57061,24.26644S33.35978,44.89961,33.35978,35.74847a16.57061,16.57061,0,0,1,33.14122,0Z" fill="#ffab80"/><path d="M66.501,35.74847c0,9.15113-7.41891,24.26644-16.57061,24.26644S33.35978,44.89961,33.35978,35.74847a16.57061,16.57061,0,0,1,33.14122,0Z" fill="#ffab80"/><path d="M53.78864,80.819,51.278,67.15252a3.57433,3.57433,0,0,1,.5353-2.6192l1.423-2.14905a1.53074,1.53074,0,0,0,.08285-.15188,9.58926,9.58926,0,0,1-1.5052.37278,10.82366,10.82366,0,0,1-1.8918.1657,9.061,9.061,0,0,1-1.73993-.15188,7.76918,7.76918,0,0,1-1.46373-.34522.41555.41555,0,0,0,.05521.11049l1.423,2.14905a3.57433,3.57433,0,0,1,.5353,2.6192L46.22142,80.819Z" fill="#4d4d4d"/><path d="M78.65839,74.4422c-1.6427-4.07666-5.26379-6.97833-9.61633-9.07666a35.81076,35.81076,0,0,1-5.11987-2.92566c-.41968-.28778-.82733-.59949-1.223-.92328-.09595-.0719-.19189-.15588-.27576-.22778a13.63428,13.63428,0,0,1-2.73383-3.03363l-6.259,22.56592H74.31787A4.65314,4.65314,0,0,0,78.65839,74.4422Z" fill="#10556b"/><path d="M37.5766,61.28882c-.08386.0719-.17981.15588-.27576.22778-.39569.32379-.80334.6355-1.223.92328a35.81076,35.81076,0,0,1-5.11987,2.92566c-4.35254,2.09833-7.97363,5-9.61633,9.07666a4.65314,4.65314,0,0,0,4.34052,6.37891H46.5694l-6.259-22.56592A13.63428,13.63428,0,0,1,37.5766,61.28882Z" fill="#10556b"/><path d="M62.0157,68.507l1.72662,3.3693-5.11992,8.94478H53.43062l6.25895-22.56591a13.635,13.635,0,0,0,2.73384,3.0336c.08387.07194.17981.15588.27576.22782.3957.32376.80334.63545,1.223.92328l1.163,4.64027Z" fill="#2b687f"/><path d="M37.9843,68.507l-1.72662,3.3693,5.11992,8.94478h5.19178L40.31043,58.25521a13.635,13.635,0,0,1-2.73384,3.0336c-.08387.07194-.17981.15588-.27576.22782-.3957.32376-.80334.63545-1.223.92328l-1.163,4.64027Z" fill="#2b687f"/></g></svg>