<svg fill="#000000" xmlns="http://www.w3.org/2000/svg" xmlns:xlink="http://www.w3.org/1999/xlink" version="1.1" x="0px" y="0px" viewBox="0 0 100 100" style="enable-background:new 0 0 100 100;" xml:space="preserve"><path d="M14.5,89c-0.3,0.9,0.2,1.8,1.1,2.1h0c0.9,0.3,1.8-0.2,2.1-1.1l7.9-23.5H22L14.5,89z"/><path d="M57.7,5.9c-0.3-0.9-1.2-1.4-2.1-1.1h0c-0.9,0.3-1.4,1.2-1.1,2.1l2.1,6.2h3.5L57.7,5.9z"/><path d="M82.3,90c0.3,0.9,1.2,1.4,2.1,1.1l0,0c0.9-0.3,1.4-1.2,1.1-2.1L78,66.5h-3.5L82.3,90z"/><path d="M45.4,7c0.3-0.9-0.2-1.8-1.1-2.1h0c-0.9-0.3-1.8,0.2-2.1,1.1l-2.4,7.3h3.5L45.4,7z"/><path d="M91.6,65.6H8.4V14.2h83.2V65.6z M10.3,63.6h79.4V16.1H10.3V63.6z"/><rect x="18.3" y="23.3" width="22.9" height="1.9"/><rect x="18.3" y="31.3" width="19" height="1.9"/><rect x="18.3" y="39.2" width="22.9" height="1.9"/><rect x="18.3" y="47.1" width="19" height="1.9"/><rect x="18.3" y="55.1" width="22.9" height="1.9"/><rect x="58.8" y="23.3" width="22.9" height="1.9"/><rect x="58.8" y="31.3" width="19" height="1.9"/><rect x="58.8" y="39.2" width="22.9" height="1.9"/><rect x="58.8" y="47.1" width="19" height="1.9"/><rect x="58.8" y="55.1" width="22.9" height="1.9"/></svg>